name ./resultDataOpenSim/trcMotMarkerGrf/sub10/grf-01-05.mot
datacolumns 19
datarows 15
range 0.97200000 1.02800000
endheader

                time	     ground_force_vx	     ground_force_vy	     ground_force_vz	     ground_force_px	     ground_force_py	     ground_force_pz	   l_ground_force_vx	   l_ground_force_vy	   l_ground_force_vz	   l_ground_force_px	   l_ground_force_py	   l_ground_force_pz	     ground_torque_x	     ground_torque_y	     ground_torque_z	   l_ground_torque_x	   l_ground_torque_y	   l_ground_torque_z	
          0.97200000	          0.00000000	          0.00000000	          0.00000000	          0.00000000	          0.00000000	          0.00000000	         18.70422461	        449.09853815	         33.04302431	         -0.02168635	          0.00000000	         -0.11921248	          0.00000000	          0.00000000	          0.00000000	          0.00000000	         -3.03041737	          0.00000000	
          0.97600000	          0.00000000	          0.00000000	          0.00000000	          0.00000000	          0.00000000	          0.00000000	         23.04514961	        460.98974205	         33.68450612	         -0.02118843	          0.00000000	         -0.11890007	          0.00000000	          0.00000000	          0.00000000	          0.00000000	         -3.40361916	          0.00000000	
          0.98000000	          0.00000000	          0.00000000	          0.00000000	          0.00000000	          0.00000000	          0.00000000	         27.28811345	        473.45147975	         34.19928015	         -0.02067730	          0.00000000	         -0.11873353	          0.00000000	          0.00000000	          0.00000000	          0.00000000	         -3.79428177	          0.00000000	
          0.98400000	          0.00000000	          0.00000000	          0.00000000	          0.00000000	          0.00000000	          0.00000000	         31.36536462	        486.31652509	         34.56690398	         -0.02016773	          0.00000000	         -0.11873856	          0.00000000	          0.00000000	          0.00000000	          0.00000000	         -4.19800583	          0.00000000	
          0.98800000	          0.00000000	          0.00000000	          0.00000000	          0.00000000	          0.00000000	          0.00000000	         35.19896938	        499.58710535	         34.79560196	         -0.01958879	          0.00000000	         -0.11881670	          0.00000000	          0.00000000	          0.00000000	          0.00000000	         -4.60963115	          0.00000000	
          0.99200000	          0.00000000	          0.00000000	          0.00000000	          0.00000000	          0.00000000	          0.00000000	         38.71836605	        513.29706201	         34.93533994	         -0.01884626	          0.00000000	         -0.11885766	          0.00000000	          0.00000000	          0.00000000	          0.00000000	         -5.02306944	          0.00000000	
          0.99600000	          0.00000000	          0.00000000	          0.00000000	          0.00000000	          0.00000000	          0.00000000	         41.88673238	        527.39024059	         35.06027912	         -0.01788541	          0.00000000	         -0.11880368	          0.00000000	          0.00000000	          0.00000000	          0.00000000	         -5.43087425	          0.00000000	
          1.00000000	          0.00000000	          0.00000000	          0.00000000	          0.00000000	          0.00000000	          0.00000000	         44.71554887	        541.72368378	         35.25138775	         -0.01669779	          0.00000000	         -0.11864450	          0.00000000	          0.00000000	          0.00000000	          0.00000000	         -5.82386101	          0.00000000	
          1.00400000	          0.00000000	          0.00000000	          0.00000000	          0.00000000	          0.00000000	          0.00000000	         47.25864299	        556.14535621	         35.59551752	         -0.01531556	          0.00000000	         -0.11841332	          0.00000000	          0.00000000	          0.00000000	          0.00000000	         -6.19126354	          0.00000000	
          1.00800000	          0.00000000	          0.00000000	          0.00000000	          0.00000000	          0.00000000	          0.00000000	         49.58630268	        570.56656869	         36.18240680	         -0.01382732	          0.00000000	         -0.11816251	          0.00000000	          0.00000000	          0.00000000	          0.00000000	         -6.52164528	          0.00000000	
          1.01200000	          0.00000000	          0.00000000	          0.00000000	          0.00000000	          0.00000000	          0.00000000	         51.76819360	        584.98867422	         37.08971457	         -0.01231614	          0.00000000	         -0.11793340	          0.00000000	          0.00000000	          0.00000000	          0.00000000	         -6.80429478	          0.00000000	
          1.01600000	          0.00000000	          0.00000000	          0.00000000	          0.00000000	          0.00000000	          0.00000000	         53.87566173	        599.48166498	         38.36394272	         -0.01080440	          0.00000000	         -0.11772524	          0.00000000	          0.00000000	          0.00000000	          0.00000000	         -7.03067099	          0.00000000	
          1.02000000	          0.00000000	          0.00000000	          0.00000000	          0.00000000	          0.00000000	          0.00000000	         55.97954798	        614.12390830	         40.01387784	         -0.00927383	          0.00000000	         -0.11751497	          0.00000000	          0.00000000	          0.00000000	          0.00000000	         -7.19568297	          0.00000000	
          1.02400000	          0.00000000	          0.00000000	          0.00000000	          0.00000000	          0.00000000	          0.00000000	         58.14244752	        628.93287143	         42.00730571	         -0.00769500	          0.00000000	         -0.11728915	          0.00000000	          0.00000000	          0.00000000	          0.00000000	         -7.29876370	          0.00000000	
          1.02800000	          0.00000000	          0.00000000	          0.00000000	          0.00000000	          0.00000000	          0.00000000	         60.40944267	        643.82850974	         44.24972208	         -0.00604629	          0.00000000	         -0.11703420	          0.00000000	          0.00000000	          0.00000000	          0.00000000	         -7.34462597	          0.00000000	
